<svg viewBox="0 0 7 7" fill="none" xmlns="http://www.w3.org/2000/svg">
<path d="M6.47094 0.126111C6.35615 0.0622375 6.2299 0.0216178 6.0994 0.00657503C5.9689 -0.00846772 5.83672 0.00236149 5.71041 0.0384435C5.5841 0.0745255 5.46614 0.135153 5.36328 0.216857C5.26042 0.298562 5.17467 0.399742 5.11094 0.514611L3.25444 3.85561L2.19194 2.79311C2.0997 2.6976 1.98935 2.62142 1.86735 2.56901C1.74534 2.5166 1.61412 2.48902 1.48135 2.48786C1.34857 2.48671 1.21689 2.51201 1.09399 2.56229C0.971094 2.61257 0.859442 2.68682 0.765549 2.78072C0.671657 2.87461 0.597404 2.98626 0.547123 3.10916C0.496842 3.23205 0.47154 3.36373 0.472694 3.49651C0.473848 3.62929 0.501434 3.76051 0.553843 3.88252C0.606252 4.00452 0.682434 4.11487 0.777944 4.20711L2.77794 6.20711C2.96694 6.39661 3.22194 6.50061 3.48494 6.50061L3.62344 6.49061C3.77672 6.46917 3.92292 6.41245 4.05055 6.3249C4.17818 6.23736 4.28375 6.12139 4.35894 5.98611L6.85894 1.48611C6.92277 1.37134 6.96337 1.24511 6.97841 1.11465C6.99345 0.984188 6.98265 0.852039 6.94662 0.72575C6.91059 0.599461 6.85004 0.481505 6.76842 0.378619C6.68681 0.275733 6.58572 0.18993 6.47094 0.126111Z" />
</svg>
