<svg viewBox="0 0 18 21" fill="none" xmlns="http://www.w3.org/2000/svg">
<path d="M17.238 4.73425C14.142 3.70225 10.361 1.74131 9.54999 0.919312C9.40999 0.777312 9.22 0.697313 9.021 0.695312C8.844 0.699313 8.63095 0.772255 8.48895 0.911255C7.51595 1.87025 4.56696 3.78825 0.795959 4.85425C0.472959 4.94525 0.25 5.24029 0.25 5.57629C0.25 13.8073 1.52898 18.0912 8.79498 20.1672C8.86198 20.1862 8.93198 20.1963 9.00098 20.1963C9.06998 20.1963 9.13997 20.1862 9.20697 20.1672C16.517 18.0782 17.75 13.9383 17.75 5.44629C17.751 5.12329 17.544 4.83625 17.238 4.73425ZM9.00195 18.6653C2.99695 16.8883 1.80599 13.7703 1.75299 6.13733C5.05899 5.11733 7.69401 3.52828 9.03101 2.43628C10.55 3.56128 13.777 5.09835 16.25 5.98035C16.2 13.7273 15.013 16.8853 9.00195 18.6653Z" />
</svg>
