<svg viewBox="0 0 20 23" fill="none" xmlns="http://www.w3.org/2000/svg">
<path d="M15.7189 9.14447L17.8442 10.2941L18.2891 10.5441C19.237 11.0767 19.237 12.4497 18.2891 12.9822L12.2525 16.3738C10.8524 17.1604 9.14756 17.1604 7.74754 16.3738L1.71092 12.9822C0.763024 12.4497 0.763026 11.0767 1.71093 10.5441L2.15585 10.2941L4.16334 9.14447M16.1811 14.2633L18.1129 15.2357C19.1092 15.7372 19.1412 17.157 18.1685 17.7034L12.2525 21.0273C10.8524 21.8138 9.14756 21.8138 7.74754 21.0273L1.9178 17.7519C0.928395 17.196 0.982913 15.745 2.0112 15.2659L4.16334 14.2633M12.2525 11.4284L18.2891 8.0368C19.237 7.50424 19.237 6.13124 18.2891 5.59868L12.2525 2.20712C10.8524 1.42055 9.14756 1.42054 7.74754 2.20712L1.71093 5.59868C0.763027 6.13124 0.763024 7.50423 1.71092 8.03679L7.74754 11.4284C9.14756 12.2149 10.8524 12.2149 12.2525 11.4284Z" stroke-width="1.5"/>
</svg>
