<svg viewBox="0 0 24 25" fill="none" xmlns="http://www.w3.org/2000/svg">
<path d="M3.17932 1.15612C2.52844 0.50525 1.47317 0.50525 0.822295 1.15612C0.171421 1.807 0.171421 2.86227 0.822295 3.51315L9.64371 12.3346L0.82214 21.1561C0.171266 21.807 0.171266 22.8623 0.82214 23.5131C1.47301 24.164 2.52829 24.164 3.17916 23.5131L12.0007 14.6916L20.8223 23.5132C21.4732 24.164 22.5285 24.164 23.1793 23.5132C23.8302 22.8623 23.8302 21.807 23.1793 21.1561L14.3577 12.3346L23.1792 3.51315C23.83 2.86228 23.83 1.807 23.1792 1.15613C22.5283 0.505252 21.473 0.505253 20.8221 1.15613L12.0007 9.97754L3.17932 1.15612Z" />
</svg>
