<svg viewBox="0 0 20 16" fill="none" xmlns="http://www.w3.org/2000/svg">
<path d="M15 0.175781H5C2.381 0.175781 0.25 2.30678 0.25 4.92578V10.9258C0.25 13.5448 2.381 15.6758 5 15.6758H15C17.619 15.6758 19.75 13.5448 19.75 10.9258V4.92578C19.75 2.30678 17.619 0.175781 15 0.175781ZM5 1.67578H15C16.354 1.67578 17.515 2.50972 18.003 3.68872L11.803 7.82275C10.708 8.55175 9.292 8.55175 8.198 7.82275L1.99799 3.68872C2.48499 2.50872 3.646 1.67578 5 1.67578ZM15 14.1758H5C3.208 14.1758 1.75 12.7178 1.75 10.9258V5.32678L7.36499 9.0708C8.16499 9.6038 9.082 9.87073 10 9.87073C10.917 9.87073 11.834 9.6038 12.635 9.0708L18.25 5.32678V10.9258C18.25 12.7178 16.792 14.1758 15 14.1758Z" />
</svg>
