<svg viewBox="0 0 17 14" fill="none" xmlns="http://www.w3.org/2000/svg">
<path d="M12.6628 0.642578H4.32943C2.14693 0.642578 0.371094 2.41841 0.371094 4.60091V9.60091C0.371094 11.7834 2.14693 13.5592 4.32943 13.5592H12.6628C14.8453 13.5592 16.6211 11.7834 16.6211 9.60091V4.60091C16.6211 2.41841 14.8453 0.642578 12.6628 0.642578ZM4.32943 1.89258H12.6628C13.7911 1.89258 14.7586 2.58753 15.1653 3.57003L9.99858 7.01506C9.08608 7.62256 7.90609 7.62256 6.99443 7.01506L1.82775 3.57003C2.23358 2.58669 3.20109 1.89258 4.32943 1.89258ZM12.6628 12.3092H4.32943C2.83609 12.3092 1.62109 11.0942 1.62109 9.60091V4.93508L6.30025 8.05509C6.96692 8.49926 7.73109 8.7217 8.49609 8.7217C9.26026 8.7217 10.0244 8.49926 10.6919 8.05509L15.3711 4.93508V9.60091C15.3711 11.0942 14.1561 12.3092 12.6628 12.3092Z" />
</svg>
