<svg viewBox="0 0 17 17" fill="none" xmlns="http://www.w3.org/2000/svg">
<path d="M16.5667 12.5045C16.5475 12.392 16.5243 12.2938 16.5001 12.2063C16.3543 11.6855 15.9009 11.2887 15.345 11.1971L11.7351 10.5963C11.2034 10.5071 10.6709 10.7129 10.3442 11.1313C10.2992 11.1888 10.2559 11.2471 10.2159 11.3062C10.1567 11.3929 10.0392 11.4738 9.91175 11.4179C8.03925 10.6038 6.56091 9.12538 5.74757 7.25288C5.69091 7.12371 5.77005 7.01039 5.85505 6.95289C5.93421 6.89956 6.01088 6.8421 6.08505 6.7821C6.49088 6.45376 6.69258 5.92875 6.61092 5.41125L6.05173 1.86541C5.9659 1.32208 5.59342 0.877877 5.07842 0.707877C4.95759 0.667877 4.81759 0.63125 4.65509 0.602083C3.60009 0.41375 2.5209 0.712051 1.69174 1.42372C0.822569 2.17038 0.340896 3.25544 0.372563 4.39878C0.555063 11.1671 5.99838 16.6113 12.7667 16.7938C12.8009 16.7946 12.8351 16.7954 12.8693 16.7954C13.9668 16.7954 15.0042 16.3204 15.7284 15.482C16.4459 14.6512 16.7517 13.5654 16.5667 12.5045ZM14.7809 14.6654C14.2801 15.2446 13.5517 15.5538 12.7992 15.5454C6.69589 15.3804 1.78588 10.4696 1.62088 4.36541C1.60088 3.59958 1.92256 2.87294 2.50589 2.3721C2.94673 1.99377 3.47255 1.79542 4.02089 1.79542C4.15755 1.79542 4.29592 1.80788 4.43425 1.83204C4.53092 1.84954 4.61339 1.87044 4.68505 1.8946C4.75422 1.9171 4.80505 1.98125 4.81755 2.06042L5.37673 5.60625C5.38923 5.68375 5.35925 5.7621 5.30008 5.8096C5.25175 5.84877 5.20255 5.8854 5.15172 5.91957C4.54005 6.3354 4.31343 7.08873 4.60093 7.75123C5.54093 9.91457 7.25008 11.6238 9.41258 12.5638C10.0726 12.8504 10.8276 12.6246 11.2484 12.0105C11.2734 11.9746 11.2992 11.9388 11.3276 11.9021C11.3726 11.8446 11.4509 11.8171 11.5301 11.8288L15.1401 12.4296C15.2167 12.4429 15.2809 12.4895 15.2967 12.5437C15.3117 12.5954 15.3242 12.6529 15.3359 12.7188C15.4559 13.4088 15.2534 14.1179 14.7809 14.6654Z" />
</svg>
